<svg xmlns="http://www.w3.org/2000/svg" viewBox="0 0 212.55 51.42"><defs><style>.cls-1{fill:#c65417;}</style></defs><g id="Layer_2" data-name="Layer 2"><g id="Layer_1-2" data-name="Layer 1"><path class="cls-1" d="M46.68,43.76a4.13,4.13,0,0,1-1.37-3.16,4.26,4.26,0,0,1,1.37-3.23,5,5,0,0,1,3.54-1.3,4.92,4.92,0,0,1,3.5,1.3,4.3,4.3,0,0,1,1.37,3.23,4.16,4.16,0,0,1-1.37,3.16A5,5,0,0,1,50.22,45,5,5,0,0,1,46.68,43.76Z" transform="translate(-15.15 -6.05)"/><path class="cls-1" d="M60,24.12a12.55,12.55,0,0,1,4.48-4.89,11.42,11.42,0,0,1,6.15-1.76,11.29,11.29,0,0,1,4.57.89,8.4,8.4,0,0,1,3.28,2.48V17.76H86.7V57.47H78.46V41.28A10.43,10.43,0,0,1,75.06,44a9.86,9.86,0,0,1-4.55,1,11.25,11.25,0,0,1-6.07-1.74A12.38,12.38,0,0,1,60,38.38a14.92,14.92,0,0,1-1.66-7.13A15,15,0,0,1,60,24.12Zm17.64,3.45a5.74,5.74,0,0,0-5-3,5.67,5.67,0,0,0-2.79.75,5.9,5.9,0,0,0-2.22,2.24,7.18,7.18,0,0,0-.87,3.66,7,7,0,0,0,.87,3.64,5.91,5.91,0,0,0,2.22,2.22,5.66,5.66,0,0,0,2.79.74,5.77,5.77,0,0,0,2.82-.74,5.63,5.63,0,0,0,2.22-2.24,7.4,7.4,0,0,0,.84-3.67A7.22,7.22,0,0,0,77.62,27.57Z" transform="translate(-15.15 -6.05)"/><path class="cls-1" d="M119.23,17.76V44.65H111V41a9,9,0,0,1-3.4,2.86,10.28,10.28,0,0,1-4.75,1.09,10.58,10.58,0,0,1-5.44-1.38,9.16,9.16,0,0,1-3.66-4,13.53,13.53,0,0,1-1.31-6.12V17.76h8.2v14.6A5.89,5.89,0,0,0,102,36.55a5.53,5.53,0,0,0,7.57,0,5.89,5.89,0,0,0,1.4-4.19V17.76Z" transform="translate(-15.15 -6.05)"/><path class="cls-1" d="M125.76,13.69a4.14,4.14,0,0,1-1.38-3.16,4.18,4.18,0,0,1,1.38-3.2,5,5,0,0,1,3.54-1.28,4.92,4.92,0,0,1,3.49,1.28,4.18,4.18,0,0,1,1.38,3.2,4.14,4.14,0,0,1-1.38,3.16A4.92,4.92,0,0,1,129.3,15,5,5,0,0,1,125.76,13.69Zm7.64,4.07V44.65h-8.24V17.76Z" transform="translate(-15.15 -6.05)"/><path class="cls-1" d="M163.3,20.53q2.82,3.06,2.82,8.41V44.65h-8.2V30.05a5.89,5.89,0,0,0-1.39-4.19,5.46,5.46,0,0,0-7.52,0,5.89,5.89,0,0,0-1.4,4.19v14.6h-8.24V17.76h8.24v3.57A8.73,8.73,0,0,1,151,18.51a10.77,10.77,0,0,1,4.77-1A9.78,9.78,0,0,1,163.3,20.53Z" transform="translate(-15.15 -6.05)"/><path class="cls-1" d="M177,43.35a12.37,12.37,0,0,1-5-4.82,14.36,14.36,0,0,1-1.81-7.33A14.31,14.31,0,0,1,172,23.9a12.47,12.47,0,0,1,5-4.84,15.91,15.91,0,0,1,14.27,0,12.47,12.47,0,0,1,5,4.84,14.31,14.31,0,0,1,1.83,7.3,14.23,14.23,0,0,1-1.85,7.31,12.66,12.66,0,0,1-5.06,4.84A15.22,15.22,0,0,1,184.09,45,14.93,14.93,0,0,1,177,43.35Zm11.13-7.18a6.9,6.9,0,0,0,1.67-5,7,7,0,0,0-1.62-5,5.48,5.48,0,0,0-8,0,7.06,7.06,0,0,0-1.59,5,7.19,7.19,0,0,0,1.56,5,5.11,5.11,0,0,0,3.93,1.73A5.37,5.37,0,0,0,188.11,36.17Z" transform="translate(-15.15 -6.05)"/><path class="cls-1" d="M218.45,44.65l-5.16-7.47L209,44.65H200l8.87-13.73L199.8,17.76h9.25l5.16,7.42,4.33-7.42h8.92l-9,13.54,9.25,13.35Z" transform="translate(-15.15 -6.05)"/><path class="cls-1" d="M40.63,23.64l-14.29,12a5.61,5.61,0,0,0,3.7,1.9,4.91,4.91,0,0,0,3.53-1.23,4.34,4.34,0,0,0,1.61-4.75l6.72-5.64a12.12,12.12,0,0,1,0,10.6,14.05,14.05,0,0,1-3.76,4.73,14.37,14.37,0,0,1-6.48,3.23,12,12,0,0,1-6.79-.59,14.92,14.92,0,0,1-6-4.5,15,15,0,0,1-3.4-6.71A11.84,11.84,0,0,1,16,25.9a14.62,14.62,0,0,1,4.35-5.85,14.3,14.3,0,0,1,6.37-3.2,11.69,11.69,0,0,1,6.64.53,14.18,14.18,0,0,1,5.86,4.33A19.77,19.77,0,0,1,40.63,23.64Zm-9.29,1.83a4.22,4.22,0,0,0-3.28-1.66,5.3,5.3,0,0,0-3.57,1.36,5.18,5.18,0,0,0-1.9,3.17,5.32,5.32,0,0,0,.85,3.75Z" transform="translate(-15.15 -6.05)"/></g></g></svg>